<svg xmlns="http://www.w3.org/2000/svg" width="400" height="300" viewBox="0 0 400 300">
    <style>
        .st0 {
            fill: #4e73df;
        }

        .st1 {
            fill: #ffffff;
        }

        .st2 {
            fill: #f8f9fc;
        }

        .st3 {
            fill: #2e59d9;
        }
    </style>
    <rect class="st0" width="400" height="300" rx="20" />
    <circle class="st1" cx="200" cy="80" r="40" opacity="0.2" />
    <circle class="st3" cx="320" cy="250" r="30" opacity="0.1" />
    <circle class="st3" cx="50" cy="150" r="20" opacity="0.1" />
    <path class="st1" d="M200 120 C 160 120, 120 160, 120 200 L 280 200 C 280 160, 240 120, 200 120 Z" opacity="0.2" />
    <rect class="st2" x="150" y="140" width="100" height="80" rx="10" />
    <rect class="st0" x="170" y="160" width="60" height="8" rx="4" />
    <rect class="st0" x="170" y="180" width="60" height="8" rx="4" />
    <circle class="st0" cx="200" cy="210" r="5" />
    <path class="st1" d="M190 230 L 210 230 L 220 240 L 180 240 Z" opacity="0.5" />
    <path class="st1" d="M120 250 L 280 250 L 260 270 L 140 270 Z" opacity="0.3" />
</svg>